<mxfile host="app.diagrams.net" modified="2023-11-29T17:41:57.878Z" agent="Mozilla/5.0 (Windows NT 10.0; Win64; x64) AppleWebKit/537.36 (KHTML, like Gecko) Chrome/119.0.0.0 Safari/537.36" etag="fhS_s_iFZ2P-euMs20gc" version="22.1.4" type="github">
  <diagram name="페이지-1" id="8yWpIlEQ9eC-lhXUe0Wv">
    <mxGraphModel dx="683" dy="361" grid="1" gridSize="10" guides="1" tooltips="1" connect="1" arrows="1" fold="1" page="1" pageScale="1" pageWidth="827" pageHeight="1169" math="0" shadow="0">
      <root>
        <mxCell id="0" />
        <mxCell id="1" parent="0" />
        <mxCell id="Md-BkLxXCwqExL5JY2hL-5" style="edgeStyle=orthogonalEdgeStyle;rounded=0;orthogonalLoop=1;jettySize=auto;html=1;exitX=1;exitY=0.5;exitDx=0;exitDy=0;entryX=0;entryY=0.5;entryDx=0;entryDy=0;endArrow=none;endFill=0;" edge="1" parent="1" source="Md-BkLxXCwqExL5JY2hL-6" target="Md-BkLxXCwqExL5JY2hL-9">
          <mxGeometry relative="1" as="geometry" />
        </mxCell>
        <mxCell id="Md-BkLxXCwqExL5JY2hL-6" value="Shop" style="html=1;whiteSpace=wrap;" vertex="1" parent="1">
          <mxGeometry x="110" y="210" width="110" height="50" as="geometry" />
        </mxCell>
        <mxCell id="Md-BkLxXCwqExL5JY2hL-7" style="edgeStyle=orthogonalEdgeStyle;rounded=0;orthogonalLoop=1;jettySize=auto;html=1;exitX=0.5;exitY=1;exitDx=0;exitDy=0;entryX=0.5;entryY=0;entryDx=0;entryDy=0;endArrow=none;endFill=0;" edge="1" parent="1" source="Md-BkLxXCwqExL5JY2hL-9" target="Md-BkLxXCwqExL5JY2hL-11">
          <mxGeometry relative="1" as="geometry" />
        </mxCell>
        <mxCell id="Md-BkLxXCwqExL5JY2hL-8" value="" style="edgeStyle=orthogonalEdgeStyle;rounded=0;orthogonalLoop=1;jettySize=auto;html=1;endArrow=none;endFill=0;" edge="1" parent="1" source="Md-BkLxXCwqExL5JY2hL-9" target="Md-BkLxXCwqExL5JY2hL-12">
          <mxGeometry relative="1" as="geometry" />
        </mxCell>
        <mxCell id="Md-BkLxXCwqExL5JY2hL-9" value="Inventory" style="html=1;whiteSpace=wrap;" vertex="1" parent="1">
          <mxGeometry x="350" y="210" width="110" height="50" as="geometry" />
        </mxCell>
        <mxCell id="Md-BkLxXCwqExL5JY2hL-10" style="edgeStyle=orthogonalEdgeStyle;rounded=0;orthogonalLoop=1;jettySize=auto;html=1;exitX=1;exitY=0.5;exitDx=0;exitDy=0;entryX=0.5;entryY=1;entryDx=0;entryDy=0;endArrow=none;endFill=0;" edge="1" parent="1" source="Md-BkLxXCwqExL5JY2hL-11" target="Md-BkLxXCwqExL5JY2hL-12">
          <mxGeometry relative="1" as="geometry" />
        </mxCell>
        <mxCell id="Md-BkLxXCwqExL5JY2hL-11" value="Product" style="html=1;whiteSpace=wrap;" vertex="1" parent="1">
          <mxGeometry x="350" y="370" width="110" height="50" as="geometry" />
        </mxCell>
        <mxCell id="Md-BkLxXCwqExL5JY2hL-12" value="Stock" style="html=1;whiteSpace=wrap;" vertex="1" parent="1">
          <mxGeometry x="534" y="210" width="110" height="50" as="geometry" />
        </mxCell>
        <mxCell id="Md-BkLxXCwqExL5JY2hL-13" value="1. 품목 이름 입력()" style="text;html=1;strokeColor=none;fillColor=none;align=center;verticalAlign=middle;whiteSpace=wrap;rounded=0;" vertex="1" parent="1">
          <mxGeometry x="220" y="149.43" width="120" height="30" as="geometry" />
        </mxCell>
        <mxCell id="Md-BkLxXCwqExL5JY2hL-14" value="" style="endArrow=classic;html=1;rounded=0;exitX=0.25;exitY=0;exitDx=0;exitDy=0;entryX=0.75;entryY=0;entryDx=0;entryDy=0;" edge="1" parent="1" source="Md-BkLxXCwqExL5JY2hL-13" target="Md-BkLxXCwqExL5JY2hL-13">
          <mxGeometry width="50" height="50" relative="1" as="geometry">
            <mxPoint x="290" y="109.43" as="sourcePoint" />
            <mxPoint x="340" y="59.43" as="targetPoint" />
          </mxGeometry>
        </mxCell>
        <mxCell id="Md-BkLxXCwqExL5JY2hL-18" value="" style="endArrow=classic;html=1;rounded=0;" edge="1" parent="1">
          <mxGeometry width="50" height="50" relative="1" as="geometry">
            <mxPoint x="380" y="287.5" as="sourcePoint" />
            <mxPoint x="380" y="342.5" as="targetPoint" />
          </mxGeometry>
        </mxCell>
        <mxCell id="Md-BkLxXCwqExL5JY2hL-19" value="3. 같은 이름의&lt;br&gt;재고 리스트 가져오기()" style="text;html=1;strokeColor=none;fillColor=none;align=center;verticalAlign=middle;whiteSpace=wrap;rounded=0;" vertex="1" parent="1">
          <mxGeometry x="240" y="300" width="130" height="30" as="geometry" />
        </mxCell>
        <mxCell id="Md-BkLxXCwqExL5JY2hL-20" value="2. 판매 개수 입력()" style="text;html=1;strokeColor=none;fillColor=none;align=center;verticalAlign=middle;whiteSpace=wrap;rounded=0;" vertex="1" parent="1">
          <mxGeometry x="220" y="180" width="120" height="30" as="geometry" />
        </mxCell>
        <mxCell id="Md-BkLxXCwqExL5JY2hL-21" value="" style="endArrow=classic;html=1;rounded=0;exitX=0.25;exitY=0;exitDx=0;exitDy=0;entryX=0.75;entryY=0;entryDx=0;entryDy=0;" edge="1" parent="1">
          <mxGeometry width="50" height="50" relative="1" as="geometry">
            <mxPoint x="250" y="179.43" as="sourcePoint" />
            <mxPoint x="310" y="179.43" as="targetPoint" />
          </mxGeometry>
        </mxCell>
        <mxCell id="Md-BkLxXCwqExL5JY2hL-23" value="4. 해당 재고들 삭제()" style="text;html=1;strokeColor=none;fillColor=none;align=center;verticalAlign=middle;whiteSpace=wrap;rounded=0;" vertex="1" parent="1">
          <mxGeometry x="350" y="170" width="136" height="30" as="geometry" />
        </mxCell>
      </root>
    </mxGraphModel>
  </diagram>
</mxfile>
